<?xml version="1.0" encoding="UTF-8"?>
<svg version="1.1" viewBox="0 0 64 64" xmlns="http://www.w3.org/2000/svg" xmlns:xlink="http://www.w3.org/1999/xlink"><defs><linearGradient id="a" x1="-633" x2="-608" y1="-331" y2="-369" gradientTransform="translate(652 382)" gradientUnits="userSpaceOnUse"><stop stop-color="#2a8ec0" offset="0"/><stop stop-color="#156099" offset="1"/></linearGradient></defs><path d="m43.1 19.7 6.69-7.55c-11-11-36.4-7.24-41.5 11.5-2.28 8.47-2.46 18.5 2.41 25.4 4.73 6.69 12.9 10.9 20.3 11.4 5.51 0.411 11.9-1.01 16.7-4.16 10.7-7.01 9.71-27.2 9.71-27.2l-24-0.168-0.219 8.61 13.6 0.112c0.173 0.264-0.651 12.8-14 12.7-4.58-0.0141-7.15-2.04-9.44-3.84-4.32-3.37-5.96-7.94-5.78-13.1 0.284-7.97 5.72-16.6 12.8-17.5 7.12-0.993 12.7 3.86 12.7 3.86z" fill="url(#a)"/><path d="m47.8 0.0131a21 37.4 38.5 0 0-31.6 18.9 21 37.4 38.5 0 0-6.83 42.3 21 37.4 38.5 0 0 20-0.0156 17.3 33.7 38.5 0 1-14.5-0.357 17.3 33.7 38.5 0 1 7.48-37.1 17.3 33.7 38.5 0 1 34.5-15.6 17.3 33.7 38.5 0 1 3.69 13.6 21 37.4 38.5 0 0-4.59-19 21 37.4 38.5 0 0-8.06-2.79z" fill="#ecb845" stop-color="#000000" style="paint-order:markers stroke fill"/></svg>
